<svg id="Capa_1" enable-background="new 0 0 512 512" height="512" viewBox="0 0 512 512" width="512" xmlns="http://www.w3.org/2000/svg"><g><circle cx="256" cy="256" fill="#f4fbff" r="256"/><path d="m398.127 43.06c27.193 40.661 43.059 89.539 43.059 142.127 0 141.385-114.615 256-256 256-52.588 0-101.466-15.866-142.127-43.059 45.917 68.656 124.145 113.871 212.941 113.871 141.385 0 256-114.615 256-256 0-88.795-45.216-167.023-113.873-212.939z" fill="#ddeafb"/><circle cx="256" cy="256" fill="#e28086" r="216.99"/><path d="m436.349 135.474c3.167 16.082 4.837 32.701 4.837 49.712 0 141.385-114.615 256-256 256-17.011 0-33.63-1.67-49.712-4.836 34.498 23.13 75.962 36.64 120.526 36.64 119.649 0 216.99-97.341 216.99-216.99 0-44.564-13.51-86.028-36.641-120.526z" fill="#dd636e"/><g><path d="m291 105.856v37.816c0-12.728 10.318-23.046 23.046-23.046 13.389 0 24.243 10.854 24.243 24.243v147.779l23.393-23.393c9.794-9.794 25.673-9.794 35.467 0 9.794 9.794 9.794 25.673 0 35.467l-58.86 58.86v5.233c0 33.674-27.298 60.972-60.972 60.972h-52.522c-41.787 0-75.663-33.875-75.663-75.663v-186.792c0-13.059 10.586-23.645 23.645-23.645 13.059 0 23.645 10.586 23.645 23.645v-35.467c0-13.059 10.586-23.645 23.645-23.645 13.059 0 23.645 10.586 23.645 23.645v-26.009c0-13.059 10.586-23.645 23.645-23.645 13.057.001 23.643 10.587 23.643 23.645z" fill="#f4fbff"/><path d="m319.615 121.277-170.483 170.484v62.364c0 21.959 9.363 41.724 24.305 55.546l164.852-164.853v-99.948c0-11.471-7.97-21.075-18.674-23.593z" fill="#ddeafb"/></g><g fill="#bed8fb"><path d="m235.984 261.822c4.268 0 7.726-3.459 7.726-7.726v-122.248c-.007-10.171-6.437-18.838-15.453-22.168v144.416c0 4.267 3.459 7.726 7.727 7.726z"/><path d="m283.273 214.993c4.268 0 7.726-3.459 7.726-7.726v-63.594-37.816c0-10.178-6.432-18.853-15.453-22.185v123.596c.001 4.266 3.46 7.725 7.727 7.725z"/><path d="m322.836 122.277v71.47c0 4.268 3.459 7.726 7.726 7.726s7.726-3.459 7.726-7.726v-11.613-37.269c-.001-10.285-6.411-19.067-15.452-22.588z"/><path d="m196.421 167.332c0-10.178-6.432-18.853-15.452-22.185v153.696c0 4.268 3.459 7.726 7.726 7.726s7.726-3.459 7.726-7.726z"/><path d="m338.289 292.646v-21.855l-24.97 24.97c-3.017 3.018-3.017 7.909 0 10.928 1.509 1.508 3.487 2.263 5.464 2.263s3.955-.755 5.464-2.263z"/></g><g><g><path d="m29.468 512c-7.541 0-15.083-2.877-20.836-8.631-11.508-11.507-11.508-30.165 0-41.673l453.064-453.064c11.507-11.509 30.165-11.509 41.673 0 11.508 11.507 11.508 30.165 0 41.673l-453.065 453.064c-5.753 5.754-13.295 8.631-20.836 8.631z" fill="#da4a54"/></g><path d="m503.368 8.632c-3.105-3.106-6.734-5.366-10.599-6.795 3.868 10.46 1.608 22.672-6.794 31.074l-453.065 453.064c-5.754 5.755-13.295 8.631-20.836 8.631-3.471 0-6.94-.617-10.237-1.836 1.429 3.865 3.689 7.494 6.794 10.599 5.754 5.754 13.296 8.631 20.837 8.631s15.083-2.877 20.836-8.631l453.064-453.065c11.509-11.507 11.509-30.165 0-41.672z" fill="#d82e3d"/></g></g></svg>